<svg xmlns="http://www.w3.org/2000/svg" viewBox="0 0 2400 400" preserveAspectRatio="none">
  <defs>
    <linearGradient id="track" x1="0" y1="0" x2="0" y2="1">
      <stop offset="0%" stop-color="#1a1a1a"/>
      <stop offset="100%" stop-color="#0a0a0a"/>
    </linearGradient>
  </defs>
  <rect width="2400" height="400" fill="#0d0d0d"/>
  <rect x="0" y="60" width="2400" height="8" fill="#333" opacity="0.8"/>
  <rect x="0" y="68" width="2400" height="4" fill="#2a2a2a" opacity="0.6"/>
  <rect x="0" y="150" width="2400" height="8" fill="#333" opacity="0.8"/>
  <rect x="0" y="158" width="2400" height="4" fill="#2a2a2a" opacity="0.6"/>
  <rect x="0" y="240" width="2400" height="8" fill="#333" opacity="0.8"/>
  <rect x="0" y="248" width="2400" height="4" fill="#2a2a2a" opacity="0.6"/>
  <rect x="0" y="330" width="2400" height="8" fill="#333" opacity="0.8"/>
  <rect x="0" y="338" width="2400" height="4" fill="#2a2a2a" opacity="0.6"/>
  <g fill="#1a1a1a">
    <rect x="50" y="70" width="18" height="14" rx="1"/>
    <rect x="120" y="72" width="18" height="14" rx="1"/>
    <rect x="190" y="70" width="18" height="14" rx="1"/>
    <rect x="260" y="72" width="18" height="14" rx="1"/>
    <rect x="330" y="70" width="18" height="14" rx="1"/>
    <rect x="400" y="72" width="18" height="14" rx="1"/>
    <rect x="470" y="70" width="18" height="14" rx="1"/>
    <rect x="540" y="72" width="18" height="14" rx="1"/>
    <rect x="610" y="70" width="18" height="14" rx="1"/>
    <rect x="680" y="72" width="18" height="14" rx="1"/>
    <rect x="750" y="70" width="18" height="14" rx="1"/>
    <rect x="820" y="72" width="18" height="14" rx="1"/>
    <rect x="890" y="70" width="18" height="14" rx="1"/>
    <rect x="960" y="72" width="18" height="14" rx="1"/>
    <rect x="1030" y="70" width="18" height="14" rx="1"/>
    <rect x="1100" y="72" width="18" height="14" rx="1"/>
  </g>
  <rect x="0" y="0" width="2400" height="50" fill="url(#track)" opacity="0.4"/>
  <line x1="0" y1="0" x2="2400" y2="0" stroke="#555" stroke-width="1" opacity="0.3"/>
  <line x1="0" y1="4" x2="2400" y2="4" stroke="#444" stroke-width="1" opacity="0.2"/>
  <line x1="0" y1="12" x2="2400" y2="12" stroke="#333" stroke-width="2" opacity="0.15"/>
  <line x1="0" y1="24" x2="2400" y2="24" stroke="#333" stroke-width="2" opacity="0.15"/>
  <line x1="0" y1="36" x2="2400" y2="36" stroke="#333" stroke-width="2" opacity="0.15"/>
  <line x1="0" y1="48" x2="2400" y2="48" stroke="#333" stroke-width="1" opacity="0.12"/>
</svg>
