<svg xmlns="http://www.w3.org/2000/svg" viewBox="0 0 2400 800" preserveAspectRatio="xMidYMid slice">
  <defs>
    <linearGradient id="field" x1="0" y1="0" x2="0" y2="1">
      <stop offset="0%" stop-color="#2d5016"/>
      <stop offset="50%" stop-color="#3a6b1e"/>
      <stop offset="100%" stop-color="#1e3a0d"/>
    </linearGradient>
  </defs>
  <rect width="2400" height="800" fill="#1a2e0a"/>
  <rect x="0" y="380" width="2400" height="420" fill="url(#field)" opacity="0.9"/>
  <rect x="0" y="420" width="500" height="80" fill="#3a6b1e" opacity="0.6"/>
  <rect x="550" y="440" width="400" height="60" fill="#2d5016" opacity="0.7"/>
  <rect x="1000" y="400" width="600" height="100" fill="#3a6b1e" opacity="0.5"/>
  <rect x="1650" y="430" width="450" height="70" fill="#2d5016" opacity="0.65"/>
  <rect x="2150" y="410" width="250" height="90" fill="#3a6b1e" opacity="0.55"/>
  <rect x="100" y="500" width="300" height="60" fill="#2d5016" opacity="0.4"/>
  <rect x="650" y="520" width="350" height="40" fill="#3a6b1e" opacity="0.35"/>
  <rect x="1200" y="490" width="500" height="70" fill="#2d5016" opacity="0.45"/>
  <rect x="1900" y="510" width="400" height="50" fill="#3a6b1e" opacity="0.38"/>
  <rect x="300" y="380" width="80" height="20" fill="#4a7a2e" opacity="0.5"/>
  <rect x="900" y="390" width="50" height="15" fill="#4a7a2e" opacity="0.4"/>
  <rect x="1400" y="385" width="100" height="18" fill="#4a7a2e" opacity="0.45"/>
  <rect x="2100" y="395" width="60" height="12" fill="#4a7a2e" opacity="0.35"/>
  <circle cx="500" cy="410" r="2" fill="#ffdd57" opacity="0.3"/>
  <circle cx="1100" cy="430" r="1.5" fill="#ffdd57" opacity="0.25"/>
  <circle cx="1800" cy="420" r="2" fill="#ffdd57" opacity="0.2"/>
</svg>
